<?xml version="1.0" encoding="UTF-8"?>
<svg width="2880px" height="1620px" viewBox="0 0 2880 1620" version="1.1" xmlns="http://www.w3.org/2000/svg" xmlns:xlink="http://www.w3.org/1999/xlink">
    <title>BG lines 2880</title>
    <g id="Design" stroke="none" stroke-width="1" fill="none" fill-rule="evenodd">
        <g id="BG-lines-2880" stroke="#FFFFFF" stroke-width="5">
            <g transform="translate(-190.000000, 62.000000)" id="Path-2">
                <path d="M0,110 C101.333333,169.333333 164.666667,182.666667 190,150 C228,101 403.5,0 507.033132,109.941406 C667.677711,269.647135 794.333333,296.622396 887,190.867188 C977.967954,63.6223958 1078.47577,0 1188.52344,0 C1363.14844,0 1414.14844,219.882813 1658,219.882813 C1760.79688,219.882813 1897.14531,90.3975331 2041.57031,81.6875 C2107.90726,77.6868285 2204.82004,114.080058 2332.30866,190.867188 C2420.76955,255.289062 2494,287.5 2552,287.5 C2639,287.5 2736,130.5 2833.5,110 C2898.5,96.3333333 2977.33333,128.333333 3070,206 L3092,214.5"></path>
                <path d="M126,376 C141.532118,390 153.698785,397 162.5,397 C171.301215,397 180.467882,390 190,376 C314,223 439,211 565,340 C691,469 798.333333,495.955729 887,420.867187 C1044.33254,297.757812 1178.02264,236.203125 1288.07031,236.203125 C1462.69531,236.203125 1514.28906,450.320312 1758.14062,450.320312 C1860.9375,450.320312 1975.24219,304.703125 2121.63281,304.703125 C2193.2558,304.703125 2263.48109,343.424479 2332.30866,420.867187 C2384.43622,479.955729 2440.83333,509.5 2501.5,509.5 C2592.5,509.5 2701.5,340 2829.5,340 C2914.83333,340 2995,373.166667 3070,439.5 L3094.5,439.5"></path>
                <path d="M164,621 L190,590.5 C281,505.166667 360,466.333333 427,474 C527.5,485.5 576.309568,641.758359 685.5,660.5 C730.166667,668.166667 797.333333,641.54299 887,580.62897 C1070.9992,444.345073 1218.02264,376.203125 1328.07031,376.203125 C1502.69531,376.203125 1554.28906,590.320313 1798.14063,590.320313 C1900.9375,590.320313 2015.24219,444.703125 2161.63281,444.703125 C2233.2558,444.703125 2303.48109,483.424479 2372.30866,560.867188 C2409.43622,608.289063 2452.5,634.166667 2501.5,638.5 C2575,645 2742.91939,504.239744 2829.5,492.5 C2887.22041,484.673504 2967.38707,514.006837 3070,580.5 L3102.5,580.5"></path>
                <path d="M164,848 L190,820.5 C257.523276,723.084292 324.523276,674.417625 391,674.5 C490.715085,674.623563 569.5,879 682,879 C757,879 825.333333,856.209657 887,810.62897 C1070.9992,674.345073 1218.02264,606.203125 1328.07031,606.203125 C1502.69531,606.203125 1554.28906,820.320313 1798.14063,820.320313 C1900.9375,820.320313 2015.24219,674.703125 2161.63281,674.703125 C2233.2558,674.703125 2303.48109,713.424479 2372.30866,790.867188 C2433.76955,857.289063 2508.16667,890.5 2595.5,890.5 C2726.5,890.5 2771.54767,760.665978 2866.5,748 C2929.80155,739.556015 3016.96822,763.722681 3128,820.5"></path>
                <path d="M9,971 C110.333333,1030.33333 173.666667,1043.66667 199,1011 C237,962 412.5,861 516.033132,970.941406 C676.677711,1130.64714 803.333333,1157.6224 896,1051.86719 C986.967954,924.622396 1087.47577,861 1197.52344,861 C1372.14844,861 1423.14844,1080.88281 1667,1080.88281 C1769.79688,1080.88281 1906.14531,951.397533 2050.57031,942.6875 C2116.90726,938.686829 2213.82004,975.080058 2341.30866,1051.86719 C2429.76955,1116.28906 2503,1148.5 2561,1148.5 C2648,1148.5 2745,991.5 2842.5,971 C2907.5,957.333333 2986.33333,989.333333 3079,1067 L3101,1075.5"></path>
                <path d="M135,1237 C150.532118,1251 162.698785,1258 171.5,1258 C180.301215,1258 189.467882,1251 199,1237 C323,1084 448,1072 574,1201 C700,1330 807.333333,1356.95573 896,1281.86719 C1053.33254,1158.75781 1187.02264,1097.20312 1297.07031,1097.20312 C1471.69531,1097.20312 1523.28906,1311.32031 1767.14062,1311.32031 C1869.9375,1311.32031 1984.24219,1165.70312 2130.63281,1165.70312 C2202.2558,1165.70312 2272.48109,1204.42448 2341.30866,1281.86719 C2393.43622,1340.95573 2449.83333,1370.5 2510.5,1370.5 C2601.5,1370.5 2710.5,1201 2838.5,1201 C2923.83333,1201 3004,1234.16667 3079,1300.5 L3103.5,1300.5"></path>
                <path d="M173,1482 L199,1451.5 C290,1366.16667 369,1327.33333 436,1335 C536.5,1346.5 585.309568,1502.75836 694.5,1521.5 C739.166667,1529.16667 806.333333,1502.54299 896,1441.62897 C1079.9992,1305.34507 1227.02264,1237.20312 1337.07031,1237.20312 C1511.69531,1237.20312 1563.28906,1451.32031 1807.14063,1451.32031 C1909.9375,1451.32031 2024.24219,1305.70312 2170.63281,1305.70312 C2242.2558,1305.70312 2312.48109,1344.42448 2381.30866,1421.86719 C2418.43622,1469.28906 2461.5,1495.16667 2510.5,1499.5 C2584,1506 2751.91939,1365.23974 2838.5,1353.5 C2896.22041,1345.6735 2976.38707,1375.00684 3079,1441.5 L3111.5,1441.5"></path>
            </g>
        </g>
    </g>
</svg>