<?xml version="1.0" encoding="UTF-8"?>
<svg viewBox="0 0 76 81" version="1.1" xmlns="http://www.w3.org/2000/svg" xmlns:xlink="http://www.w3.org/1999/xlink">
    <title>6566898A-7805-48AD-9662-1990DD699378@1x</title>
    <defs>
        <linearGradient x1="50%" y1="0%" x2="50%" y2="100%" id="linearGradient-1">
            <stop stop-color="#FFFFFF" offset="0%"></stop>
            <stop stop-color="#F4F4F4" offset="100%"></stop>
        </linearGradient>
    </defs>
    <g id="Design" stroke="none" stroke-width="1" fill="none" fill-rule="evenodd">
        <g id="Home---Desktop" transform="translate(-866.000000, -612.000000)">
            <g id="Illustrations-/-London-eye" transform="translate(864.000000, 612.000000)">
                <g transform="translate(4.000000, 1.000000)">
                    <circle id="Oval" stroke="#0B0B0B" fill="url(#linearGradient-1)" fill-rule="nonzero" cx="36" cy="39" r="35.5"></circle>
                    <circle id="Oval" stroke="#0B0B0B" fill-rule="nonzero" cx="36" cy="39" r="9.5"></circle>
                    <circle id="Oval" fill="#000000" cx="36" cy="39" r="6"></circle>
                    <circle id="Oval" stroke="#0B0B0B" fill="#B4ADFD" fill-rule="nonzero" cx="36" cy="4" r="4.5"></circle>
                    <circle id="Oval" stroke="#0B0B0B" fill="#B4ADFD" fill-rule="nonzero" transform="translate(66.310889, 21.500000) rotate(60.000000) translate(-66.310889, -21.500000) " cx="66.3108891" cy="21.5" r="4.5"></circle>
                    <circle id="Oval" stroke="#0B0B0B" fill="#B4ADFD" fill-rule="nonzero" transform="translate(66.310889, 56.500000) rotate(120.000000) translate(-66.310889, -56.500000) " cx="66.3108891" cy="56.5" r="4.5"></circle>
                    <circle id="Oval" stroke="#0B0B0B" fill="#B4ADFD" fill-rule="nonzero" transform="translate(36.000000, 74.000000) rotate(180.000000) translate(-36.000000, -74.000000) " cx="36" cy="74" r="4.5"></circle>
                    <circle id="Oval" stroke="#0B0B0B" fill="#B4ADFD" fill-rule="nonzero" transform="translate(5.689111, 56.500000) rotate(240.000000) translate(-5.689111, -56.500000) " cx="5.68911087" cy="56.5" r="4.5"></circle>
                    <circle id="Oval" stroke="#0B0B0B" fill="#B4ADFD" fill-rule="nonzero" transform="translate(5.689111, 21.500000) rotate(300.000000) translate(-5.689111, -21.500000) " cx="5.68911087" cy="21.5" r="4.5"></circle>
                    <line x1="36" y1="8" x2="36" y2="39" id="Path-2" stroke-opacity="0.2" stroke="#000000"></line>
                    <line x1="49.4233938" y1="15.75" x2="49.4233938" y2="46.75" id="Path-2" stroke-opacity="0.2" stroke="#000000" transform="translate(49.423394, 31.250000) rotate(60.000000) translate(-49.423394, -31.250000) "></line>
                    <line x1="49.4233938" y1="31.25" x2="49.4233938" y2="62.25" id="Path-2" stroke-opacity="0.2" stroke="#000000" transform="translate(49.423394, 46.750000) rotate(120.000000) translate(-49.423394, -46.750000) "></line>
                    <line x1="36" y1="39" x2="36" y2="70" id="Path-2" stroke-opacity="0.2" stroke="#000000" transform="translate(36.000000, 54.500000) rotate(180.000000) translate(-36.000000, -54.500000) "></line>
                    <line x1="22.5766062" y1="31.25" x2="22.5766062" y2="62.25" id="Path-2" stroke-opacity="0.2" stroke="#000000" transform="translate(22.576606, 46.750000) rotate(240.000000) translate(-22.576606, -46.750000) "></line>
                    <line x1="22.5766062" y1="15.75" x2="22.5766062" y2="46.75" id="Path-2" stroke-opacity="0.2" stroke="#000000" transform="translate(22.576606, 31.250000) rotate(300.000000) translate(-22.576606, -31.250000) "></line>
                    <polyline id="Path" stroke="#000000" stroke-linecap="round" stroke-linejoin="round" points="14 79 36 39 58 79"></polyline>
                </g>
            </g>
        </g>
    </g>
</svg>