<?xml version="1.0" encoding="UTF-8"?>
<svg viewBox="0 0 80 80" version="1.1" xmlns="http://www.w3.org/2000/svg" xmlns:xlink="http://www.w3.org/1999/xlink">
    <title>9E7E44D9-351C-47B3-9C2A-8A4CEAEE2081</title>
    <defs>
        <circle id="path-1" cx="36.5" cy="36.5" r="36.5"></circle>
    </defs>
    <g id="Illustrations" stroke="none" stroke-width="1" fill="none" fill-rule="evenodd">
        <g id="About---Desktop" transform="translate(-942.000000, -2485.000000)">
            <g id="Illustrations-/-Caipirinha-Copy-3" transform="translate(942.000000, 2485.000000)">
                <g id="Rectangle" transform="translate(4.000000, 4.000000)">
                    <mask id="mask-2" fill="white">
                        <use xlink:href="#path-1"></use>
                    </mask>
                    <circle stroke="#0B0B0B" cx="36.5" cy="36.5" r="37"></circle>
                    <g id="Group" mask="url(#mask-2)" stroke="#E7E7E7">
                        <g transform="translate(-9.000000, -5.000000)">
                            <rect id="Rectangle-Copy-13" x="81.1395349" y="0.5" width="1" height="94"></rect>
                            <rect id="Rectangle-Copy-12" x="75.6162791" y="0.5" width="1" height="94"></rect>
                            <rect id="Rectangle-Copy-11" x="70.0930233" y="0.5" width="1" height="94"></rect>
                            <rect id="Rectangle-Copy-10" x="64.5697674" y="0.5" width="1" height="94"></rect>
                            <rect id="Rectangle-Copy-9" x="59.0465116" y="0.5" width="1" height="94"></rect>
                            <rect id="Rectangle-Copy-8" x="53.5232558" y="0.5" width="1" height="94"></rect>
                            <rect id="Rectangle-Copy-7" x="48" y="0.5" width="1" height="94"></rect>
                            <rect id="Rectangle-Copy-6" x="42.4767442" y="0.5" width="1" height="94"></rect>
                            <rect id="Rectangle-Copy-5" x="36.9534884" y="0.5" width="1" height="94"></rect>
                            <rect id="Rectangle-Copy-4" x="31.4302326" y="0.5" width="1" height="94"></rect>
                            <rect id="Rectangle-Copy-3" x="25.9069767" y="0.5" width="1" height="94"></rect>
                            <rect id="Rectangle-Copy-2" x="20.3837209" y="0.5" width="1" height="94"></rect>
                            <rect id="Rectangle-Copy" x="14.8604651" y="0.5" width="1" height="94"></rect>
                            <rect id="Rectangle" x="9.3372093" y="0.5" width="1" height="94"></rect>
                            <path d="M47.4476744,29.2209302 L47.5523256,123.22093 L47.4476744,123.22093 L47.4476744,29.2209302 Z" id="Rectangle-Copy-26" transform="translate(47.500000, 76.220930) rotate(-270.000000) translate(-47.500000, -76.220930) "></path>
                            <path d="M47.4476744,23.6976744 L47.5523256,117.697674 L47.4476744,117.697674 L47.4476744,23.6976744 Z" id="Rectangle-Copy-25" transform="translate(47.500000, 70.697674) rotate(-270.000000) translate(-47.500000, -70.697674) "></path>
                            <path d="M47.4476744,18.1744186 L47.5523256,112.174419 L47.4476744,112.174419 L47.4476744,18.1744186 Z" id="Rectangle-Copy-24" transform="translate(47.500000, 65.174419) rotate(-270.000000) translate(-47.500000, -65.174419) "></path>
                            <path d="M47.4476744,12.6511628 L47.5523256,106.651163 L47.4476744,106.651163 L47.4476744,12.6511628 Z" id="Rectangle-Copy-23" transform="translate(47.500000, 59.651163) rotate(-270.000000) translate(-47.500000, -59.651163) "></path>
                            <path d="M47.4476744,7.12790698 L47.5523256,101.127907 L47.4476744,101.127907 L47.4476744,7.12790698 Z" id="Rectangle-Copy-22" transform="translate(47.500000, 54.127907) rotate(-270.000000) translate(-47.500000, -54.127907) "></path>
                            <path d="M47.4476744,1.60465116 L47.5523256,95.6046512 L47.4476744,95.6046512 L47.4476744,1.60465116 Z" id="Rectangle-Copy-21" transform="translate(47.500000, 48.604651) rotate(-270.000000) translate(-47.500000, -48.604651) "></path>
                            <path d="M47.4476744,-3.91860465 L47.5523256,90.0813953 L47.4476744,90.0813953 L47.4476744,-3.91860465 Z" id="Rectangle-Copy-20" transform="translate(47.500000, 43.081395) rotate(-270.000000) translate(-47.500000, -43.081395) "></path>
                            <path d="M47.4476744,-9.44186047 L47.5523256,84.5581395 L47.4476744,84.5581395 L47.4476744,-9.44186047 Z" id="Rectangle-Copy-19" transform="translate(47.500000, 37.558140) rotate(-270.000000) translate(-47.500000, -37.558140) "></path>
                            <path d="M47.4476744,-14.9651163 L47.5523256,79.0348837 L47.4476744,79.0348837 L47.4476744,-14.9651163 Z" id="Rectangle-Copy-18" transform="translate(47.500000, 32.034884) rotate(-270.000000) translate(-47.500000, -32.034884) "></path>
                            <path d="M47.4476744,-20.4883721 L47.5523256,73.5116279 L47.4476744,73.5116279 L47.4476744,-20.4883721 Z" id="Rectangle-Copy-17" transform="translate(47.500000, 26.511628) rotate(-270.000000) translate(-47.500000, -26.511628) "></path>
                            <path d="M47.4476744,-26.0116279 L47.5523256,67.9883721 L47.4476744,67.9883721 L47.4476744,-26.0116279 Z" id="Rectangle-Copy-16" transform="translate(47.500000, 20.988372) rotate(-270.000000) translate(-47.500000, -20.988372) "></path>
                            <path d="M47.4476744,-31.5348837 L47.5523256,62.4651163 L47.4476744,62.4651163 L47.4476744,-31.5348837 Z" id="Rectangle-Copy-15" transform="translate(47.500000, 15.465116) rotate(-270.000000) translate(-47.500000, -15.465116) "></path>
                            <path d="M47.4476744,-37.0581395 L47.5523256,56.9418605 L47.4476744,56.9418605 L47.4476744,-37.0581395 Z" id="Rectangle" transform="translate(47.500000, 9.941860) rotate(-270.000000) translate(-47.500000, -9.941860) "></path>
                        </g>
                    </g>
                    <g id="Heart" mask="url(#mask-2)" fill="#0B0B0B">
                        <g transform="translate(6.000000, 11.000000)">
                            <rect id="Rectangle" x="27.7272727" y="48.5" width="6" height="5.95081967"></rect>
                            <rect id="Rectangle-Copy-29" x="22.1818182" y="43" width="6" height="5.95081967"></rect>
                            <rect id="Rectangle-Copy-31" x="33.2727273" y="43" width="6" height="5.95081967"></rect>
                            <rect id="Rectangle-Copy-30" x="16.6363636" y="37.5" width="6" height="5.95081967"></rect>
                            <rect id="Rectangle-Copy-33" x="11.0909091" y="32" width="6" height="5.95081967"></rect>
                            <rect id="Rectangle-Copy-35" x="5.54545455" y="26.5" width="6" height="5.95081967"></rect>
                            <rect id="Rectangle-Copy-37" x="0" y="22" width="6" height="5.95081967"></rect>
                            <rect id="Rectangle-Copy-39" x="0" y="16.5" width="6" height="5.95081967"></rect>
                            <rect id="Rectangle-Copy-40" x="0" y="11" width="6" height="5.95081967"></rect>
                            <rect id="Rectangle-Copy-43" x="5.54545455" y="5.5" width="6" height="5.95081967"></rect>
                            <rect id="Rectangle-Copy-45" x="11.0909091" y="5.5" width="6" height="5.95081967"></rect>
                            <rect id="Rectangle-Copy-47" x="16.6363636" y="5.5" width="6" height="5.95081967"></rect>
                            <rect id="Rectangle-Copy-49" x="22.1818182" y="11" width="6" height="5.95081967"></rect>
                            <rect id="Rectangle-Copy-51" x="27.7272727" y="15.5" width="6" height="5.95081967"></rect>
                            <rect id="Rectangle-Copy-32" x="38.8181818" y="37.5" width="6" height="5.95081967"></rect>
                            <rect id="Rectangle-Copy-34" x="44.3636364" y="32" width="6" height="5.95081967"></rect>
                            <rect id="Rectangle-Copy-36" x="49.9090909" y="26.5" width="6" height="5.95081967"></rect>
                            <rect id="Rectangle-Copy-38" x="54.4545455" y="22" width="6" height="5.95081967"></rect>
                            <rect id="Rectangle-Copy-41" x="54.4545455" y="16.5" width="6" height="5.95081967"></rect>
                            <rect id="Rectangle-Copy-42" x="54.4545455" y="11" width="6" height="5.95081967"></rect>
                            <rect id="Rectangle-Copy-44" x="49.9090909" y="5.5" width="6" height="5.95081967"></rect>
                            <rect id="Rectangle-Copy-46" x="44.3636364" y="5.5" width="6" height="5.95081967"></rect>
                            <rect id="Rectangle-Copy-48" x="38.8181818" y="5.5" width="6" height="5.95081967"></rect>
                            <rect id="Rectangle-Copy-50" x="33.2727273" y="11" width="6" height="5.95081967"></rect>
                        </g>
                    </g>
                </g>
            </g>
        </g>
    </g>
</svg>